<?xml version="1.0"?>
<svg width="1080" height="1080" xmlns="http://www.w3.org/2000/svg" xmlns:svg="http://www.w3.org/2000/svg" data-name="Camada 2">
 <defs>
  <style>.cls-1 {
        fill: #4e73df;
        stroke: #fff;
        stroke-miterlimit: 10;
      }</style>
 </defs>
 <g class="layer">
  <title>Layer 1</title>
  <path class="cls-1" d="m482.95,624.79l-0.36,18.87c0.26,1.13 0.81,2.15 1.58,2.96c0.76,0.53 1.56,1.08 2.37,1.65c5.22,3.63 11.58,8.03 19.3,13.38c13.48,9.35 31.14,21.59 54.24,37.61c1.61,1.12 1.43,3.56 -0.34,4.42c-6.75,3.26 -14.27,6.89 -22.64,10.93l0,0c-11.92,-8.27 -22.48,-15.59 -31.84,-22.08c-8.78,-6.09 -16.51,-11.44 -23.29,-16.15l-0.47,24.97c-0.04,2.11 0.98,4.1 2.71,5.3c0,0 0.02,0.01 0.03,0.02c0.05,0.04 0.12,0.08 0.18,0.12c6.16,4.28 12.91,8.95 20.3,14.08c2.58,1.78 5.22,3.63 7.96,5.53c5.92,4.11 12.22,8.48 18.93,13.13c2.05,1.42 4.7,1.63 6.95,0.55l0.04,-0.02c7.52,-3.63 14.42,-6.96 20.75,-10.02c10.31,-4.98 19.11,-9.22 26.6,-12.84c7.42,-3.58 13.58,-6.55 18.68,-9.02c2.56,-1.24 2.82,-4.77 0.49,-6.39c-5.95,-4.12 -11.62,-8.05 -17.03,-11.81c-37.11,-25.73 -61.96,-42.97 -78.61,-54.52c-1.94,-1.35 -3.08,-3.58 -3.04,-5.94l0.09,-4.71c0.02,-0.96 0.51,-1.85 1.32,-2.35c6.81,-4.26 11.19,-12.06 10.55,-20.88c-0.8,-10.98 -9.68,-19.91 -20.66,-20.8c-13.13,-1.07 -24.24,9.13 -24.49,22.1c-0.13,6.95 2.88,13.23 7.74,17.46c1.28,1.11 1.98,2.74 1.95,4.44l0.01,0.01zm13.15,-33.92c6.88,0.13 12.34,5.8 12.21,12.68c-0.04,2.04 -0.57,3.96 -1.47,5.65c-2.14,3.98 -6.37,6.66 -11.21,6.57c-6.88,-0.13 -12.34,-5.8 -12.21,-12.68c0.13,-6.88 5.8,-12.34 12.68,-12.21l0,-0.01z" id="svg_1"/>
  <path class="cls-1" d="m438.05,532.99l-16.52,9.13c-0.85,0.79 -1.46,1.78 -1.78,2.85c-0.08,0.93 -0.16,1.89 -0.24,2.88c-0.53,6.34 -1.16,14.05 -1.94,23.41c-1.36,16.35 -3.13,37.76 -5.45,65.78c-0.16,1.96 -2.37,3.02 -3.99,1.91c-6.2,-4.21 -13.1,-8.91 -20.78,-14.14l0,0c1.2,-14.47 2.26,-27.27 3.2,-38.62c0.88,-10.65 1.66,-20.02 2.34,-28.24l-21.86,12.08c-1.85,1.02 -3.06,2.9 -3.23,5c0,0.01 0,0.02 0,0.03c0,0.07 0,0.14 -0.02,0.22c-0.62,7.47 -1.3,15.66 -2.04,24.62c-0.26,3.12 -0.53,6.34 -0.8,9.66c-0.6,7.18 -1.23,14.83 -1.91,22.96c-0.21,2.48 0.94,4.89 3,6.3l0.03,0.02c6.9,4.7 13.24,9.01 19.05,12.97c9.46,6.44 17.54,11.94 24.42,16.62c6.81,4.64 12.46,8.48 17.15,11.67c2.35,1.6 5.55,0.06 5.78,-2.77c0.6,-7.21 1.16,-14.09 1.71,-20.65c3.73,-45 6.24,-75.15 7.91,-95.34c0.2,-2.36 1.56,-4.46 3.63,-5.6l4.12,-2.28c0.84,-0.46 1.85,-0.48 2.7,-0.04c7.1,3.76 16.04,3.66 23.35,-1.31c9.11,-6.19 12.4,-18.34 7.69,-28.29c-5.63,-11.91 -20.03,-16.43 -31.38,-10.15c-6.08,3.36 -10.01,9.11 -11.25,15.43c-0.33,1.66 -1.38,3.09 -2.87,3.9l-0.02,-0.01zm35.95,-5.57c3.33,6.02 1.14,13.59 -4.88,16.92c-1.79,0.99 -3.72,1.49 -5.62,1.55c-4.51,0.14 -8.95,-2.19 -11.29,-6.42c-3.33,-6.02 -1.14,-13.59 4.88,-16.92c6.02,-3.33 13.59,-1.14 16.92,4.88l-0.01,-0.01z" id="svg_2"/>
  <path class="cls-1" d="m495.1,448.2l-16.16,-9.74c-1.11,-0.34 -2.27,-0.37 -3.36,-0.12c-0.84,0.39 -1.71,0.81 -2.62,1.23c-5.75,2.71 -12.74,6.02 -21.24,10.02c-14.84,7 -34.27,16.17 -59.69,28.17c-1.77,0.84 -3.8,-0.55 -3.65,-2.5c0.55,-7.47 1.17,-15.8 1.85,-25.07l0,0c13.12,-6.2 24.74,-11.68 35.04,-16.54c9.66,-4.56 18.16,-8.57 25.63,-12.09l-21.39,-12.9c-1.81,-1.09 -4.04,-1.2 -5.95,-0.3c-0.01,0 -0.02,0 -0.03,0.01c-0.06,0.03 -0.13,0.07 -0.2,0.1c-6.78,3.2 -14.21,6.71 -22.34,10.54c-2.83,1.34 -5.75,2.71 -8.77,4.13c-6.52,3.07 -13.46,6.35 -20.83,9.83c-2.25,1.06 -3.77,3.26 -3.96,5.74l0,0.04c-0.62,8.33 -1.19,15.97 -1.71,22.98c-0.84,11.41 -1.57,21.16 -2.18,29.46c-0.61,8.22 -1.11,15.03 -1.53,20.69c-0.21,2.83 2.72,4.83 5.29,3.62c6.54,-3.09 12.78,-6.04 18.74,-8.84c40.84,-19.27 68.2,-32.17 86.52,-40.82c2.14,-1.01 4.64,-0.88 6.66,0.34l4.03,2.43c0.82,0.49 1.35,1.36 1.38,2.32c0.29,8.03 4.85,15.72 12.81,19.57c9.91,4.79 22.08,1.57 28.34,-7.49c7.49,-10.83 4.21,-25.56 -6.9,-32.25c-5.95,-3.59 -12.9,-4.11 -18.99,-2.03c-1.6,0.55 -3.36,0.34 -4.81,-0.53l0.02,0zm22.8,28.34c-3.55,5.89 -11.2,7.79 -17.09,4.23c-1.75,-1.05 -3.15,-2.47 -4.15,-4.1c-2.38,-3.84 -2.58,-8.85 -0.08,-12.99c3.55,-5.89 11.2,-7.79 17.09,-4.23c5.89,3.55 7.79,11.2 4.23,17.09z" id="svg_3"/>
  <path class="cls-1" d="m597.05,455.21l0.36,-18.87c-0.26,-1.13 -0.81,-2.15 -1.58,-2.96c-0.76,-0.53 -1.56,-1.08 -2.37,-1.65c-5.22,-3.63 -11.58,-8.03 -19.3,-13.38c-13.48,-9.35 -31.14,-21.59 -54.24,-37.61c-1.61,-1.12 -1.43,-3.56 0.34,-4.42c6.75,-3.26 14.27,-6.89 22.64,-10.93l0,0c11.92,8.27 22.48,15.59 31.84,22.08c8.78,6.09 16.51,11.44 23.29,16.15l0.47,-24.97c0.04,-2.11 -0.98,-4.1 -2.71,-5.3c0,0 -0.02,-0.01 -0.03,-0.02c-0.05,-0.04 -0.12,-0.08 -0.18,-0.12c-6.16,-4.28 -12.91,-8.95 -20.3,-14.08c-2.58,-1.78 -5.22,-3.63 -7.96,-5.53c-5.92,-4.11 -12.22,-8.48 -18.93,-13.13c-2.05,-1.42 -4.7,-1.63 -6.95,-0.55l-0.04,0.02c-7.52,3.63 -14.42,6.96 -20.75,10.02c-10.31,4.98 -19.11,9.22 -26.6,12.84c-7.42,3.58 -13.58,6.55 -18.68,9.02c-2.56,1.24 -2.82,4.77 -0.49,6.39c5.95,4.12 11.62,8.05 17.03,11.81c37.11,25.73 61.96,42.97 78.61,54.52c1.94,1.35 3.08,3.58 3.04,5.94l-0.09,4.71c-0.02,0.96 -0.51,1.85 -1.32,2.35c-6.81,4.26 -11.19,12.06 -10.55,20.88c0.8,10.98 9.68,19.91 20.66,20.8c13.13,1.07 24.24,-9.13 24.49,-22.1c0.13,-6.95 -2.88,-13.23 -7.74,-17.46c-1.28,-1.11 -1.98,-2.74 -1.95,-4.44l-0.01,-0.01zm-13.15,33.92c-6.88,-0.13 -12.34,-5.8 -12.21,-12.68c0.04,-2.04 0.57,-3.96 1.47,-5.65c2.14,-3.98 6.37,-6.66 11.21,-6.57c6.88,0.13 12.34,5.8 12.21,12.68c-0.13,6.88 -5.8,12.34 -12.68,12.21l0,0.01z" id="svg_4"/>
  <path class="cls-1" d="m641.95,547.01l16.52,-9.13c0.85,-0.79 1.46,-1.78 1.78,-2.85c0.08,-0.93 0.16,-1.89 0.24,-2.88c0.53,-6.34 1.16,-14.05 1.94,-23.41c1.36,-16.35 3.13,-37.76 5.45,-65.78c0.16,-1.96 2.37,-3.02 3.99,-1.91c6.2,4.21 13.1,8.91 20.78,14.14l0,0c-1.2,14.47 -2.26,27.27 -3.2,38.62c-0.88,10.65 -1.66,20.02 -2.34,28.24l21.86,-12.08c1.85,-1.02 3.06,-2.9 3.23,-5c0,-0.01 0,-0.02 0,-0.03c0,-0.07 0,-0.14 0.02,-0.22c0.62,-7.47 1.3,-15.66 2.04,-24.62c0.26,-3.12 0.53,-6.34 0.8,-9.66c0.6,-7.18 1.23,-14.83 1.91,-22.96c0.21,-2.48 -0.94,-4.89 -3,-6.3l-0.03,-0.02c-6.9,-4.7 -13.24,-9.01 -19.05,-12.97c-9.46,-6.44 -17.54,-11.94 -24.42,-16.62c-6.81,-4.64 -12.46,-8.48 -17.15,-11.67c-2.35,-1.6 -5.55,-0.06 -5.78,2.77c-0.6,7.21 -1.16,14.09 -1.71,20.65c-3.73,45 -6.24,75.15 -7.91,95.34c-0.2,2.36 -1.56,4.46 -3.63,5.6l-4.12,2.28c-0.84,0.46 -1.85,0.48 -2.7,0.04c-7.1,-3.76 -16.04,-3.66 -23.35,1.31c-9.11,6.19 -12.4,18.34 -7.69,28.29c5.63,11.91 20.03,16.43 31.38,10.15c6.08,-3.36 10.01,-9.11 11.25,-15.43c0.33,-1.66 1.38,-3.09 2.87,-3.9l0.02,0.01zm-35.95,5.57c-3.33,-6.02 -1.14,-13.59 4.88,-16.92c1.79,-0.99 3.72,-1.49 5.62,-1.55c4.51,-0.14 8.95,2.19 11.29,6.42c3.33,6.02 1.14,13.59 -4.88,16.92c-6.02,3.33 -13.59,1.14 -16.92,-4.88l0.01,0.01z" id="svg_5"/>
  <path class="cls-1" d="m584.9,631.8l16.16,9.74c1.11,0.34 2.27,0.37 3.36,0.12c0.84,-0.39 1.71,-0.81 2.62,-1.23c5.75,-2.71 12.74,-6.02 21.24,-10.02c14.84,-7 34.27,-16.17 59.69,-28.17c1.77,-0.84 3.8,0.55 3.65,2.5c-0.55,7.47 -1.17,15.8 -1.85,25.07l0,0c-13.12,6.2 -24.74,11.68 -35.04,16.54c-9.66,4.56 -18.16,8.57 -25.63,12.09l21.39,12.9c1.81,1.09 4.04,1.2 5.95,0.3c0.01,0 0.02,0 0.03,-0.01c0.06,-0.03 0.13,-0.07 0.2,-0.1c6.78,-3.2 14.21,-6.71 22.34,-10.54c2.83,-1.34 5.75,-2.71 8.77,-4.13c6.52,-3.07 13.46,-6.35 20.83,-9.83c2.25,-1.06 3.77,-3.26 3.96,-5.74l0,-0.04c0.62,-8.33 1.19,-15.97 1.71,-22.98c0.84,-11.41 1.57,-21.16 2.18,-29.46c0.61,-8.22 1.11,-15.03 1.53,-20.69c0.21,-2.83 -2.72,-4.83 -5.29,-3.62c-6.54,3.09 -12.78,6.04 -18.74,8.84c-40.84,19.27 -68.2,32.17 -86.52,40.82c-2.14,1.01 -4.64,0.88 -6.66,-0.34l-4.03,-2.43c-0.82,-0.49 -1.35,-1.36 -1.38,-2.32c-0.29,-8.03 -4.85,-15.72 -12.81,-19.57c-9.91,-4.79 -22.08,-1.57 -28.34,7.49c-7.49,10.83 -4.21,25.56 6.9,32.25c5.95,3.59 12.9,4.11 18.99,2.03c1.6,-0.55 3.36,-0.34 4.81,0.53l-0.02,0zm-22.8,-28.34c3.55,-5.89 11.2,-7.79 17.09,-4.23c1.75,1.05 3.15,2.47 4.15,4.1c2.38,3.84 2.58,8.85 0.08,12.99c-3.55,5.89 -11.2,7.79 -17.09,4.23c-5.89,-3.55 -7.79,-11.2 -4.23,-17.09z" id="svg_6"/>
 </g>
</svg>