<?xml version="1.0" encoding="UTF-8"?>
<svg xmlns="http://www.w3.org/2000/svg" xmlns:xlink="http://www.w3.org/1999/xlink" width="32px" height="32px" viewBox="0 0 32 32" version="1.1">
<g id="surface1">
<path style="fill-rule:nonzero;fill:rgb(100%,100%,100%);fill-opacity:1;stroke-width:1;stroke-linecap:butt;stroke-linejoin:miter;stroke:rgb(100%,100%,100%);stroke-opacity:1;stroke-miterlimit:10;" d="M 482.915039 624.770508 L 482.651367 643.623047 C 482.915039 644.80957 483.442383 645.864258 484.233398 646.655273 C 484.892578 647.182617 485.683594 647.709961 486.474609 648.237305 C 491.748047 651.928711 498.076172 656.279297 505.854492 661.68457 C 519.301758 671.044922 536.967773 683.305664 560.039062 699.257812 C 561.75293 700.444336 561.489258 702.817383 559.775391 703.740234 C 553.051758 706.904297 545.405273 710.595703 537.099609 714.550781 C 525.234375 706.376953 514.555664 698.994141 505.195312 692.53418 C 496.494141 686.469727 488.71582 681.064453 481.992188 676.318359 L 481.464844 701.367188 C 481.464844 703.476562 482.519531 705.454102 484.233398 706.640625 C 484.233398 706.772461 484.365234 706.772461 484.365234 706.772461 C 490.561523 711.123047 497.285156 715.737305 504.667969 720.878906 C 507.304688 722.592773 509.941406 724.438477 512.709961 726.416016 C 518.642578 730.50293 524.838867 734.853516 531.5625 739.467773 C 533.671875 740.917969 536.308594 741.181641 538.549805 740.126953 L 538.549805 739.995117 C 546.064453 736.435547 553.051758 733.139648 559.379883 729.975586 C 569.663086 725.097656 578.496094 720.878906 586.010742 717.1875 C 593.393555 713.62793 599.589844 710.595703 604.599609 708.222656 C 607.236328 706.904297 607.5 703.344727 605.126953 701.762695 C 599.194336 697.675781 593.525391 693.720703 588.120117 690.029297 C 550.942383 664.189453 526.157227 647.050781 509.545898 635.449219 C 507.568359 634.130859 506.381836 631.889648 506.381836 629.516602 L 506.513672 624.770508 C 506.513672 623.847656 507.041016 622.924805 507.832031 622.397461 C 514.6875 618.178711 519.038086 610.400391 518.378906 601.567383 C 517.587891 590.625 508.754883 581.660156 497.680664 580.737305 C 484.628906 579.682617 473.554688 589.96582 473.291016 602.885742 C 473.15918 609.873047 476.191406 616.069336 480.9375 620.288086 C 482.255859 621.474609 482.915039 623.056641 482.915039 624.770508 Z M 496.098633 590.888672 C 502.954102 591.020508 508.491211 596.689453 508.359375 603.544922 C 508.227539 605.654297 507.700195 607.5 506.777344 609.213867 C 504.667969 613.168945 500.449219 615.805664 495.571289 615.805664 C 488.71582 615.673828 483.310547 610.004883 483.442383 603.149414 C 483.574219 596.162109 489.243164 590.756836 496.098633 590.888672 Z M 496.098633 590.888672 " transform="matrix(0.0296296,0,0,0.0296296,0,0)"/>
<path style="fill-rule:nonzero;fill:rgb(100%,100%,100%);fill-opacity:1;stroke-width:1;stroke-linecap:butt;stroke-linejoin:miter;stroke:rgb(100%,100%,100%);stroke-opacity:1;stroke-miterlimit:10;" d="M 438.09082 533.012695 L 421.479492 542.109375 C 420.688477 542.900391 420.029297 543.955078 419.765625 545.009766 C 419.633789 545.932617 419.633789 546.855469 419.501953 547.910156 C 418.974609 554.238281 418.31543 561.884766 417.524414 571.245117 C 416.206055 587.592773 414.492188 609.082031 412.119141 637.03125 C 411.987305 639.008789 409.746094 640.063477 408.164062 639.008789 C 401.967773 634.790039 394.980469 630.043945 387.333984 624.770508 C 388.520508 610.400391 389.575195 597.480469 390.498047 586.142578 C 391.420898 575.595703 392.211914 566.235352 392.871094 557.929688 L 370.986328 570.058594 C 369.140625 571.113281 367.954102 572.958984 367.822266 575.068359 C 367.822266 575.068359 367.822266 575.200195 367.822266 575.332031 C 367.163086 582.714844 366.503906 590.888672 365.712891 599.853516 C 365.449219 603.017578 365.185547 606.181641 364.921875 609.609375 C 364.394531 616.728516 363.735352 624.375 363.076172 632.548828 C 362.8125 635.053711 363.999023 637.426758 365.976562 638.876953 L 366.108398 638.876953 C 372.963867 643.491211 379.291992 647.841797 385.092773 651.796875 C 394.584961 658.256836 402.626953 663.793945 409.482422 668.408203 C 416.337891 673.022461 422.006836 676.845703 426.621094 680.141602 C 428.994141 681.723633 432.290039 680.141602 432.421875 677.373047 C 433.081055 670.12207 433.608398 663.266602 434.135742 656.674805 C 437.958984 611.71875 440.463867 581.52832 442.045898 561.357422 C 442.30957 558.984375 443.62793 556.875 445.737305 555.688477 L 449.824219 553.447266 C 450.615234 553.051758 451.669922 552.919922 452.592773 553.447266 C 459.580078 557.138672 468.544922 557.138672 475.927734 552.128906 C 485.024414 545.932617 488.320312 533.803711 483.574219 523.78418 C 477.905273 511.918945 463.535156 507.436523 452.197266 513.632812 C 446.132812 517.060547 442.177734 522.729492 440.991211 529.057617 C 440.595703 530.771484 439.541016 532.22168 438.09082 533.012695 Z M 473.950195 527.475586 C 477.37793 533.408203 475.136719 541.054688 469.072266 544.350586 C 467.358398 545.273438 465.380859 545.800781 463.535156 545.932617 C 459.052734 546.064453 454.570312 543.691406 452.197266 539.472656 C 448.901367 533.408203 451.010742 525.893555 457.075195 522.597656 C 463.139648 519.169922 470.654297 521.411133 473.950195 527.475586 Z M 473.950195 527.475586 " transform="matrix(0.0296296,0,0,0.0296296,0,0)"/>
<path style="fill-rule:nonzero;fill:rgb(100%,100%,100%);fill-opacity:1;stroke-width:1;stroke-linecap:butt;stroke-linejoin:miter;stroke:rgb(100%,100%,100%);stroke-opacity:1;stroke-miterlimit:10;" d="M 495.043945 448.242188 L 478.959961 438.486328 C 477.773438 438.09082 476.71875 438.09082 475.532227 438.354492 C 474.741211 438.75 473.818359 439.145508 472.895508 439.541016 C 467.226562 442.30957 460.239258 445.605469 451.669922 449.560547 C 436.904297 456.547852 417.392578 465.776367 392.080078 477.773438 C 390.234375 478.564453 388.256836 477.246094 388.388672 475.268555 C 388.916016 467.753906 389.575195 459.448242 390.234375 450.219727 C 403.286133 444.023438 415.019531 438.486328 425.302734 433.608398 C 434.926758 429.125977 443.364258 425.039062 450.878906 421.611328 L 429.521484 408.691406 C 427.675781 407.504883 425.43457 407.504883 423.588867 408.295898 C 423.588867 408.295898 423.588867 408.295898 423.588867 408.427734 C 423.457031 408.427734 423.457031 408.427734 423.325195 408.427734 C 416.601562 411.723633 409.086914 415.151367 401.044922 418.974609 C 398.144531 420.292969 395.244141 421.743164 392.211914 423.193359 C 385.751953 426.225586 378.764648 429.521484 371.381836 432.949219 C 369.140625 434.003906 367.558594 436.245117 367.426758 438.75 C 366.767578 447.055664 366.240234 454.702148 365.712891 461.689453 C 364.921875 473.15918 364.130859 482.915039 363.603516 491.220703 C 362.944336 499.394531 362.416992 506.25 362.021484 511.918945 C 361.757812 514.6875 364.790039 516.665039 367.294922 515.478516 C 373.886719 512.446289 380.083008 509.414062 386.015625 506.645508 C 426.884766 487.397461 454.174805 474.477539 472.5 465.776367 C 474.741211 464.853516 477.246094 464.985352 479.223633 466.171875 L 483.310547 468.544922 C 484.101562 469.072266 484.628906 469.995117 484.628906 470.917969 C 484.892578 478.959961 489.506836 486.606445 497.416992 490.561523 C 507.304688 495.307617 519.56543 492.011719 525.761719 483.046875 C 533.276367 472.236328 529.980469 457.470703 518.90625 450.74707 C 512.973633 447.1875 505.986328 446.660156 499.921875 448.769531 C 498.339844 449.296875 496.494141 449.033203 495.043945 448.242188 Z M 517.851562 476.586914 C 514.291992 482.387695 506.645508 484.365234 500.844727 480.805664 C 498.999023 479.750977 497.680664 478.300781 496.625977 476.71875 C 494.25293 472.895508 494.121094 467.885742 496.625977 463.666992 C 500.185547 457.734375 507.832031 455.888672 513.632812 459.448242 C 519.56543 463.007812 521.411133 470.654297 517.851562 476.586914 Z M 517.851562 476.586914 " transform="matrix(0.0296296,0,0,0.0296296,0,0)"/>
<path style="fill-rule:nonzero;fill:rgb(100%,100%,100%);fill-opacity:1;stroke-width:1;stroke-linecap:butt;stroke-linejoin:miter;stroke:rgb(100%,100%,100%);stroke-opacity:1;stroke-miterlimit:10;" d="M 597.084961 455.229492 L 597.348633 436.376953 C 597.084961 435.19043 596.557617 434.135742 595.766602 433.344727 C 595.107422 432.817383 594.316406 432.290039 593.525391 431.762695 C 588.251953 428.071289 581.923828 423.720703 574.145508 418.31543 C 560.698242 408.955078 543.032227 396.694336 519.960938 380.742188 C 518.24707 379.555664 518.510742 377.182617 520.224609 376.259766 C 526.948242 373.095703 534.594727 369.404297 542.900391 365.449219 C 554.765625 373.623047 565.444336 381.005859 574.804688 387.46582 C 583.505859 393.530273 591.28418 398.935547 598.007812 403.681641 L 598.535156 378.632812 C 598.535156 376.523438 597.480469 374.545898 595.766602 373.359375 C 595.766602 373.227539 595.634766 373.227539 595.634766 373.227539 C 589.438477 368.876953 582.714844 364.262695 575.332031 359.121094 C 572.695312 357.407227 570.058594 355.561523 567.290039 353.583984 C 561.357422 349.49707 555.161133 345.146484 548.4375 340.532227 C 546.328125 339.082031 543.691406 338.818359 541.450195 339.873047 L 541.450195 340.004883 C 533.935547 343.564453 526.948242 346.860352 520.620117 350.024414 C 510.336914 354.902344 501.503906 359.121094 493.989258 362.8125 C 486.606445 366.37207 480.410156 369.404297 475.400391 371.777344 C 472.763672 373.095703 472.5 376.655273 474.873047 378.237305 C 480.805664 382.324219 486.474609 386.279297 491.879883 389.970703 C 529.057617 415.810547 553.842773 432.949219 570.454102 444.550781 C 572.431641 445.869141 573.618164 448.110352 573.618164 450.483398 L 573.486328 455.229492 C 573.486328 456.152344 572.958984 457.075195 572.167969 457.602539 C 565.3125 461.821289 560.961914 469.599609 561.621094 478.432617 C 562.412109 489.375 571.245117 498.339844 582.319336 499.262695 C 595.371094 500.317383 606.445312 490.03418 606.708984 477.114258 C 606.84082 470.126953 603.808594 463.930664 599.0625 459.711914 C 597.744141 458.525391 597.084961 456.943359 597.084961 455.229492 Z M 583.901367 489.111328 C 577.045898 488.979492 571.508789 483.310547 571.640625 476.455078 C 571.772461 474.345703 572.299805 472.5 573.222656 470.786133 C 575.332031 466.831055 579.550781 464.194336 584.428711 464.194336 C 591.28418 464.326172 596.689453 469.995117 596.557617 476.850586 C 596.425781 483.837891 590.756836 489.243164 583.901367 489.111328 Z M 583.901367 489.111328 " transform="matrix(0.0296296,0,0,0.0296296,0,0)"/>
<path style="fill-rule:nonzero;fill:rgb(100%,100%,100%);fill-opacity:1;stroke-width:1;stroke-linecap:butt;stroke-linejoin:miter;stroke:rgb(100%,100%,100%);stroke-opacity:1;stroke-miterlimit:10;" d="M 641.90918 546.987305 L 658.520508 537.890625 C 659.311523 537.099609 659.970703 536.044922 660.234375 534.990234 C 660.366211 534.067383 660.366211 533.144531 660.498047 532.089844 C 661.025391 525.761719 661.68457 518.115234 662.475586 508.754883 C 663.793945 492.407227 665.507812 470.917969 667.880859 442.96875 C 668.012695 440.991211 670.253906 439.936523 671.835938 440.991211 C 678.032227 445.209961 685.019531 449.956055 692.666016 455.229492 C 691.479492 469.599609 690.424805 482.519531 689.501953 493.857422 C 688.579102 504.404297 687.788086 513.764648 687.128906 522.070312 L 709.013672 509.941406 C 710.859375 508.886719 712.045898 507.041016 712.177734 504.931641 C 712.177734 504.931641 712.177734 504.799805 712.177734 504.667969 C 712.836914 497.285156 713.496094 489.111328 714.287109 480.146484 C 714.550781 476.982422 714.814453 473.818359 715.078125 470.390625 C 715.605469 463.271484 716.264648 455.625 716.923828 447.451172 C 717.1875 444.946289 716.000977 442.573242 714.023438 441.123047 L 713.891602 441.123047 C 707.036133 436.508789 700.708008 432.158203 694.907227 428.203125 C 685.415039 421.743164 677.373047 416.206055 670.517578 411.591797 C 663.662109 406.977539 657.993164 403.154297 653.378906 399.858398 C 651.005859 398.276367 647.709961 399.858398 647.578125 402.626953 C 646.918945 409.87793 646.391602 416.733398 645.864258 423.325195 C 642.041016 468.28125 639.536133 498.47168 637.954102 518.642578 C 637.69043 521.015625 636.37207 523.125 634.262695 524.311523 L 630.175781 526.552734 C 629.384766 526.948242 628.330078 527.080078 627.407227 526.552734 C 620.419922 522.861328 611.455078 522.861328 604.072266 527.871094 C 594.975586 534.067383 591.679688 546.196289 596.425781 556.21582 C 602.094727 568.081055 616.464844 572.563477 627.802734 566.367188 C 633.867188 562.939453 637.822266 557.270508 639.008789 550.942383 C 639.404297 549.228516 640.458984 547.77832 641.90918 546.987305 Z M 606.049805 552.524414 C 602.62207 546.591797 604.863281 538.945312 610.927734 535.649414 C 612.641602 534.726562 614.619141 534.199219 616.464844 534.067383 C 620.947266 533.935547 625.429688 536.308594 627.802734 540.527344 C 631.098633 546.591797 628.989258 554.106445 622.924805 557.402344 C 616.860352 560.830078 609.345703 558.588867 606.049805 552.524414 Z M 606.049805 552.524414 " transform="matrix(0.0296296,0,0,0.0296296,0,0)"/>
<path style="fill-rule:nonzero;fill:rgb(100%,100%,100%);fill-opacity:1;stroke-width:1;stroke-linecap:butt;stroke-linejoin:miter;stroke:rgb(100%,100%,100%);stroke-opacity:1;stroke-miterlimit:10;" d="M 584.956055 631.757812 L 601.040039 641.513672 C 602.226562 641.90918 603.28125 641.90918 604.467773 641.645508 C 605.258789 641.25 606.181641 640.854492 607.104492 640.458984 C 612.773438 637.69043 619.760742 634.394531 628.330078 630.439453 C 643.095703 623.452148 662.607422 614.223633 687.919922 602.226562 C 689.765625 601.435547 691.743164 602.753906 691.611328 604.731445 C 691.083984 612.246094 690.424805 620.551758 689.765625 629.780273 C 676.713867 635.976562 664.980469 641.513672 654.697266 646.391602 C 645.073242 650.874023 636.635742 654.960938 629.121094 658.388672 L 650.478516 671.308594 C 652.324219 672.495117 654.56543 672.495117 656.411133 671.704102 C 656.411133 671.704102 656.411133 671.704102 656.411133 671.572266 C 656.542969 671.572266 656.542969 671.572266 656.674805 671.572266 C 663.398438 668.276367 670.913086 664.848633 678.955078 661.025391 C 681.855469 659.707031 684.755859 658.256836 687.788086 656.806641 C 694.248047 653.774414 701.235352 650.478516 708.618164 647.050781 C 710.859375 645.996094 712.441406 643.754883 712.573242 641.25 C 713.232422 632.944336 713.759766 625.297852 714.287109 618.310547 C 715.078125 606.84082 715.869141 597.084961 716.396484 588.779297 C 717.055664 580.605469 717.583008 573.75 717.978516 568.081055 C 718.242188 565.3125 715.209961 563.334961 712.705078 564.521484 C 706.113281 567.553711 699.916992 570.585938 693.984375 573.354492 C 653.115234 592.602539 625.825195 605.522461 607.5 614.223633 C 605.258789 615.146484 602.753906 615.014648 600.776367 613.828125 L 596.689453 611.455078 C 595.898438 610.927734 595.371094 610.004883 595.371094 609.082031 C 595.107422 601.040039 590.493164 593.393555 582.583008 589.438477 C 572.695312 584.692383 560.43457 587.988281 554.238281 596.953125 C 546.723633 607.763672 550.019531 622.529297 561.09375 629.25293 C 567.026367 632.8125 574.013672 633.339844 580.078125 631.230469 C 581.660156 630.703125 583.505859 630.966797 584.956055 631.757812 Z M 562.148438 603.413086 C 565.708008 597.612305 573.354492 595.634766 579.155273 599.194336 C 581.000977 600.249023 582.319336 601.699219 583.374023 603.28125 C 585.74707 607.104492 585.878906 612.114258 583.374023 616.333008 C 579.814453 622.265625 572.167969 624.111328 566.367188 620.551758 C 560.43457 616.992188 558.588867 609.345703 562.148438 603.413086 Z M 562.148438 603.413086 " transform="matrix(0.0296296,0,0,0.0296296,0,0)"/>
</g>
</svg>
