<?xml version="1.0" encoding="UTF-8"?>
<svg id="Camada_2" data-name="Camada 2" xmlns="http://www.w3.org/2000/svg" viewBox="0 0 1080 1080">
  <defs>
    <style>
      .cls-1 {
        fill: #fff;
        stroke-width: 0px;
      }
    </style>
  </defs>
  <path class="cls-1" d="m361.39,551.51c-12.99,0-22.65-4.14-28.98-12.42-3.81-4.95-5.72-10.55-5.72-16.8,0-8.44,3.19-15.46,9.56-21.06s14.75-8.4,25.14-8.4h65.75l-6.21,20.58h-59.29c-4.95,0-8.24,1.83-9.86,5.48-.49,1.14-.73,2.27-.73,3.41,0,3.49,1.7,6.05,5.11,7.67,1.62.73,3.45,1.1,5.48,1.1h33.36c12.42,0,21.83,3.98,28.25,11.93,4.06,5.11,6.09,10.92,6.09,17.41,0,8.44-3.17,15.42-9.5,20.94-6.33,5.52-14.61,8.28-24.84,8.28h-68.3l6.21-20.58h61.85c5.03,0,8.32-1.79,9.86-5.36.49-1.06.73-2.15.73-3.29,0-3.49-1.62-6.05-4.87-7.67-1.7-.81-3.61-1.22-5.72-1.22h-33.36Z"/>
  <path class="cls-1" d="m476.81,492.82h62.09l-6.21,20.58h-53.08c-6.98,0-12.3,3.9-15.95,11.69-2.27,5.03-3.41,10.63-3.41,16.8,0,9.58,2.44,16.92,7.31,22.04,3.33,3.41,7.35,5.11,12.05,5.11h59.29l-6.21,20.58h-55.88c-13.23,0-23.66-5.52-31.29-16.56-6.41-9.17-9.62-20.05-9.62-32.63,0-13.31,3.53-24.43,10.59-33.36,7.55-9.42,17.65-14.16,30.32-14.25Z"/>
  <path class="cls-1" d="m578.72,576.71l8.4-19.72h27.03l-18.87-40.18-33.73,72.81h-24.23l45.9-93.02,23.13-6.21,47.61,99.23h-24.35l-6.09-12.91h-44.8Z"/>
  <path class="cls-1" d="m683.91,551.63v37.99h-23.01v-96.79h92.41l-6.33,20.58h-63.07v17.65h58.81v20.58h-58.81Z"/>
</svg>