<?xml version="1.0"?>
<svg width="1080" height="1080" xmlns="http://www.w3.org/2000/svg" xmlns:svg="http://www.w3.org/2000/svg" data-name="Camada 2">
 <defs>
  <style>.cls-1 {
        fill: #261063;
        stroke-width: 0px;
      }</style>
 </defs>
 <g class="layer">
  <title>Layer 1</title>
  <path class="cls-1" d="m361.39,551.51c-12.99,0 -22.65,-4.14 -28.98,-12.42c-3.81,-4.95 -5.72,-10.55 -5.72,-16.8c0,-8.44 3.19,-15.46 9.56,-21.06s14.75,-8.4 25.14,-8.4l65.75,0l-6.21,20.58l-59.29,0c-4.95,0 -8.24,1.83 -9.86,5.48c-0.49,1.14 -0.73,2.27 -0.73,3.41c0,3.49 1.7,6.05 5.11,7.67c1.62,0.73 3.45,1.1 5.48,1.1l33.36,0c12.42,0 21.83,3.98 28.25,11.93c4.06,5.11 6.09,10.92 6.09,17.41c0,8.44 -3.17,15.42 -9.5,20.94c-6.33,5.52 -14.61,8.28 -24.84,8.28l-68.3,0l6.21,-20.58l61.85,0c5.03,0 8.32,-1.79 9.86,-5.36c0.49,-1.06 0.73,-2.15 0.73,-3.29c0,-3.49 -1.62,-6.05 -4.87,-7.67c-1.7,-0.81 -3.61,-1.22 -5.72,-1.22l-33.36,0l-0.01,0z" id="svg_1"/>
  <path class="cls-1" d="m476.81,492.82l62.09,0l-6.21,20.58l-53.08,0c-6.98,0 -12.3,3.9 -15.95,11.69c-2.27,5.03 -3.41,10.63 -3.41,16.8c0,9.58 2.44,16.92 7.31,22.04c3.33,3.41 7.35,5.11 12.05,5.11l59.29,0l-6.21,20.58l-55.88,0c-13.23,0 -23.66,-5.52 -31.29,-16.56c-6.41,-9.17 -9.62,-20.05 -9.62,-32.63c0,-13.31 3.53,-24.43 10.59,-33.36c7.55,-9.42 17.65,-14.16 30.32,-14.25z" id="svg_2"/>
  <path class="cls-1" d="m578.72,576.71l8.4,-19.72l27.03,0l-18.87,-40.18l-33.73,72.81l-24.23,0l45.9,-93.02l23.13,-6.21l47.61,99.23l-24.35,0l-6.09,-12.91l-44.8,0z" id="svg_3"/>
  <path class="cls-1" d="m683.91,551.63l0,37.99l-23.01,0l0,-96.79l92.41,0l-6.33,20.58l-63.07,0l0,17.65l58.81,0l0,20.58l-58.81,0l0,-0.01z" id="svg_4"/>
 </g>
</svg>