<?xml version="1.0" encoding="UTF-8"?>
<svg id="Camada_2" data-name="Camada 2" xmlns="http://www.w3.org/2000/svg" viewBox="0 0 1080 1080">
  <defs>
    <style>
      .cls-1 {
        fill: #fff;
        stroke: #fff;
        stroke-miterlimit: 10;
      }
    </style>
  </defs>
  <path class="cls-1" d="m482.95,624.79l-.36,18.87c.26,1.13.81,2.15,1.58,2.96.76.53,1.56,1.08,2.37,1.65,5.22,3.63,11.58,8.03,19.3,13.38,13.48,9.35,31.14,21.59,54.24,37.61,1.61,1.12,1.43,3.56-.34,4.42-6.75,3.26-14.27,6.89-22.64,10.93h0c-11.92-8.27-22.48-15.59-31.84-22.08-8.78-6.09-16.51-11.44-23.29-16.15l-.47,24.97c-.04,2.11.98,4.1,2.71,5.3,0,0,.02.01.03.02.05.04.12.08.18.12,6.16,4.28,12.91,8.95,20.3,14.08,2.58,1.78,5.22,3.63,7.96,5.53,5.92,4.11,12.22,8.48,18.93,13.13,2.05,1.42,4.7,1.63,6.95.55l.04-.02c7.52-3.63,14.42-6.96,20.75-10.02,10.31-4.98,19.11-9.22,26.6-12.84,7.42-3.58,13.58-6.55,18.68-9.02,2.56-1.24,2.82-4.77.49-6.39-5.95-4.12-11.62-8.05-17.03-11.81-37.11-25.73-61.96-42.97-78.61-54.52-1.94-1.35-3.08-3.58-3.04-5.94l.09-4.71c.02-.96.51-1.85,1.32-2.35,6.81-4.26,11.19-12.06,10.55-20.88-.8-10.98-9.68-19.91-20.66-20.8-13.13-1.07-24.24,9.13-24.49,22.1-.13,6.95,2.88,13.23,7.74,17.46,1.28,1.11,1.98,2.74,1.95,4.44Zm13.15-33.92c6.88.13,12.34,5.8,12.21,12.68-.04,2.04-.57,3.96-1.47,5.65-2.14,3.98-6.37,6.66-11.21,6.57-6.88-.13-12.34-5.8-12.21-12.68.13-6.88,5.8-12.34,12.68-12.21Z"/>
  <path class="cls-1" d="m438.05,532.99l-16.52,9.13c-.85.79-1.46,1.78-1.78,2.85-.08.93-.16,1.89-.24,2.88-.53,6.34-1.16,14.05-1.94,23.41-1.36,16.35-3.13,37.76-5.45,65.78-.16,1.96-2.37,3.02-3.99,1.91-6.2-4.21-13.1-8.91-20.78-14.14h0c1.2-14.47,2.26-27.27,3.2-38.62.88-10.65,1.66-20.02,2.34-28.24l-21.86,12.08c-1.85,1.02-3.06,2.9-3.23,5,0,.01,0,.02,0,.03,0,.07,0,.14-.02.22-.62,7.47-1.3,15.66-2.04,24.62-.26,3.12-.53,6.34-.8,9.66-.6,7.18-1.23,14.83-1.91,22.96-.21,2.48.94,4.89,3,6.3l.03.02c6.9,4.7,13.24,9.01,19.05,12.97,9.46,6.44,17.54,11.94,24.42,16.62,6.81,4.64,12.46,8.48,17.15,11.67,2.35,1.6,5.55.06,5.78-2.77.6-7.21,1.16-14.09,1.71-20.65,3.73-45,6.24-75.15,7.91-95.34.2-2.36,1.56-4.46,3.63-5.6l4.12-2.28c.84-.46,1.85-.48,2.7-.04,7.1,3.76,16.04,3.66,23.35-1.31,9.11-6.19,12.4-18.34,7.69-28.29-5.63-11.91-20.03-16.43-31.38-10.15-6.08,3.36-10.01,9.11-11.25,15.43-.33,1.66-1.38,3.09-2.87,3.9Zm35.95-5.57c3.33,6.02,1.14,13.59-4.88,16.92-1.79.99-3.72,1.49-5.62,1.55-4.51.14-8.95-2.19-11.29-6.42-3.33-6.02-1.14-13.59,4.88-16.92,6.02-3.33,13.59-1.14,16.92,4.88Z"/>
  <path class="cls-1" d="m495.1,448.2l-16.16-9.74c-1.11-.34-2.27-.37-3.36-.12-.84.39-1.71.81-2.62,1.23-5.75,2.71-12.74,6.02-21.24,10.02-14.84,7-34.27,16.17-59.69,28.17-1.77.84-3.8-.55-3.65-2.5.55-7.47,1.17-15.8,1.85-25.07h0c13.12-6.2,24.74-11.68,35.04-16.54,9.66-4.56,18.16-8.57,25.63-12.09l-21.39-12.9c-1.81-1.09-4.04-1.2-5.95-.3-.01,0-.02,0-.03.01-.06.03-.13.07-.2.1-6.78,3.2-14.21,6.71-22.34,10.54-2.83,1.34-5.75,2.71-8.77,4.13-6.52,3.07-13.46,6.35-20.83,9.83-2.25,1.06-3.77,3.26-3.96,5.74v.04c-.62,8.33-1.19,15.97-1.71,22.98-.84,11.41-1.57,21.16-2.18,29.46-.61,8.22-1.11,15.03-1.53,20.69-.21,2.83,2.72,4.83,5.29,3.62,6.54-3.09,12.78-6.04,18.74-8.84,40.84-19.27,68.2-32.17,86.52-40.82,2.14-1.01,4.64-.88,6.66.34l4.03,2.43c.82.49,1.35,1.36,1.38,2.32.29,8.03,4.85,15.72,12.81,19.57,9.91,4.79,22.08,1.57,28.34-7.49,7.49-10.83,4.21-25.56-6.9-32.25-5.95-3.59-12.9-4.11-18.99-2.03-1.6.55-3.36.34-4.81-.53Zm22.8,28.34c-3.55,5.89-11.2,7.79-17.09,4.23-1.75-1.05-3.15-2.47-4.15-4.1-2.38-3.84-2.58-8.85-.08-12.99,3.55-5.89,11.2-7.79,17.09-4.23,5.89,3.55,7.79,11.2,4.23,17.09Z"/>
  <path class="cls-1" d="m597.05,455.21l.36-18.87c-.26-1.13-.81-2.15-1.58-2.96-.76-.53-1.56-1.08-2.37-1.65-5.22-3.63-11.58-8.03-19.3-13.38-13.48-9.35-31.14-21.59-54.24-37.61-1.61-1.12-1.43-3.56.34-4.42,6.75-3.26,14.27-6.89,22.64-10.93h0c11.92,8.27,22.48,15.59,31.84,22.08,8.78,6.09,16.51,11.44,23.29,16.15l.47-24.97c.04-2.11-.98-4.1-2.71-5.3,0,0-.02-.01-.03-.02-.05-.04-.12-.08-.18-.12-6.16-4.28-12.91-8.95-20.3-14.08-2.58-1.78-5.22-3.63-7.96-5.53-5.92-4.11-12.22-8.48-18.93-13.13-2.05-1.42-4.7-1.63-6.95-.55l-.04.02c-7.52,3.63-14.42,6.96-20.75,10.02-10.31,4.98-19.11,9.22-26.6,12.84-7.42,3.58-13.58,6.55-18.68,9.02-2.56,1.24-2.82,4.77-.49,6.39,5.95,4.12,11.62,8.05,17.03,11.81,37.11,25.73,61.96,42.97,78.61,54.52,1.94,1.35,3.08,3.58,3.04,5.94l-.09,4.71c-.02.96-.51,1.85-1.32,2.35-6.81,4.26-11.19,12.06-10.55,20.88.8,10.98,9.68,19.91,20.66,20.8,13.13,1.07,24.24-9.13,24.49-22.1.13-6.95-2.88-13.23-7.74-17.46-1.28-1.11-1.98-2.74-1.95-4.44Zm-13.15,33.92c-6.88-.13-12.34-5.8-12.21-12.68.04-2.04.57-3.96,1.47-5.65,2.14-3.98,6.37-6.66,11.21-6.57,6.88.13,12.34,5.8,12.21,12.68-.13,6.88-5.8,12.34-12.68,12.21Z"/>
  <path class="cls-1" d="m641.95,547.01l16.52-9.13c.85-.79,1.46-1.78,1.78-2.85.08-.93.16-1.89.24-2.88.53-6.34,1.16-14.05,1.94-23.41,1.36-16.35,3.13-37.76,5.45-65.78.16-1.96,2.37-3.02,3.99-1.91,6.2,4.21,13.1,8.91,20.78,14.14h0c-1.2,14.47-2.26,27.27-3.2,38.62-.88,10.65-1.66,20.02-2.34,28.24l21.86-12.08c1.85-1.02,3.06-2.9,3.23-5,0-.01,0-.02,0-.03,0-.07,0-.14.02-.22.62-7.47,1.3-15.66,2.04-24.62.26-3.12.53-6.34.8-9.66.6-7.18,1.23-14.83,1.91-22.96.21-2.48-.94-4.89-3-6.3l-.03-.02c-6.9-4.7-13.24-9.01-19.05-12.97-9.46-6.44-17.54-11.94-24.42-16.62-6.81-4.64-12.46-8.48-17.15-11.67-2.35-1.6-5.55-.06-5.78,2.77-.6,7.21-1.16,14.09-1.71,20.65-3.73,45-6.24,75.15-7.91,95.34-.2,2.36-1.56,4.46-3.63,5.6l-4.12,2.28c-.84.46-1.85.48-2.7.04-7.1-3.76-16.04-3.66-23.35,1.31-9.11,6.19-12.4,18.34-7.69,28.29,5.63,11.91,20.03,16.43,31.38,10.15,6.08-3.36,10.01-9.11,11.25-15.43.33-1.66,1.38-3.09,2.87-3.9Zm-35.95,5.57c-3.33-6.02-1.14-13.59,4.88-16.92,1.79-.99,3.72-1.49,5.62-1.55,4.51-.14,8.95,2.19,11.29,6.42,3.33,6.02,1.14,13.59-4.88,16.92-6.02,3.33-13.59,1.14-16.92-4.88Z"/>
  <path class="cls-1" d="m584.9,631.8l16.16,9.74c1.11.34,2.27.37,3.36.12.84-.39,1.71-.81,2.62-1.23,5.75-2.71,12.74-6.02,21.24-10.02,14.84-7,34.27-16.17,59.69-28.17,1.77-.84,3.8.55,3.65,2.5-.55,7.47-1.17,15.8-1.85,25.07h0c-13.12,6.2-24.74,11.68-35.04,16.54-9.66,4.56-18.16,8.57-25.63,12.09l21.39,12.9c1.81,1.09,4.04,1.2,5.95.3.01,0,.02,0,.03-.01.06-.03.13-.07.2-.1,6.78-3.2,14.21-6.71,22.34-10.54,2.83-1.34,5.75-2.71,8.77-4.13,6.52-3.07,13.46-6.35,20.83-9.83,2.25-1.06,3.77-3.26,3.96-5.74v-.04c.62-8.33,1.19-15.97,1.71-22.98.84-11.41,1.57-21.16,2.18-29.46.61-8.22,1.11-15.03,1.53-20.69.21-2.83-2.72-4.83-5.29-3.62-6.54,3.09-12.78,6.04-18.74,8.84-40.84,19.27-68.2,32.17-86.52,40.82-2.14,1.01-4.64.88-6.66-.34l-4.03-2.43c-.82-.49-1.35-1.36-1.38-2.32-.29-8.03-4.85-15.72-12.81-19.57-9.91-4.79-22.08-1.57-28.34,7.49-7.49,10.83-4.21,25.56,6.9,32.25,5.95,3.59,12.9,4.11,18.99,2.03,1.6-.55,3.36-.34,4.81.53Zm-22.8-28.34c3.55-5.89,11.2-7.79,17.09-4.23,1.75,1.05,3.15,2.47,4.15,4.1,2.38,3.84,2.58,8.85.08,12.99-3.55,5.89-11.2,7.79-17.09,4.23-5.89-3.55-7.79-11.2-4.23-17.09Z"/>
</svg>